HIERARCHY
ROOT Hips
{
	OFFSET -0.001795 -0.223333 0.028219
	CHANNELS 6 Xposition Yposition Zposition Zrotation Yrotation Xrotation 
	JOINT LeftUpLeg
	{
		OFFSET 0.069520 -0.091406 -0.006815
		CHANNELS 3 Zrotation Yrotation Xrotation
		JOINT LeftLeg
		{
			OFFSET 0.034277 -0.375199 -0.004496
			CHANNELS 3 Zrotation Yrotation Xrotation
			JOINT LeftFoot
			{
				OFFSET -0.013596 -0.397961 -0.043693
				CHANNELS 3 Zrotation Yrotation Xrotation
				JOINT LeftToe
				{
					OFFSET 0.026358 -0.055791 0.119288
					CHANNELS 3 Zrotation Yrotation Xrotation
					End Site
					{
						OFFSET 0.000000 0.000000 0.000000
					}
				}
			}
		}
	}
	JOINT RightUpLeg
	{
		OFFSET -0.067670 -0.090522 -0.004320
		CHANNELS 3 Zrotation Yrotation Xrotation
		JOINT RightLeg
		{
			OFFSET -0.038290 -0.382569 -0.008850
			CHANNELS 3 Zrotation Yrotation Xrotation
			JOINT RightFoot
			{
				OFFSET 0.015774 -0.398415 -0.042312
				CHANNELS 3 Zrotation Yrotation Xrotation
				JOINT RightToe
				{
					OFFSET -0.025372 -0.048144 0.123348
					CHANNELS 3 Zrotation Yrotation Xrotation
					End Site
					{
						OFFSET 0.000000 0.000000 0.000000
					}
				}
			}
		}
	}
	JOINT Spine
	{
		OFFSET -0.002533 0.108963 -0.026696
		CHANNELS 3 Zrotation Yrotation Xrotation
		JOINT Spine1
		{
			OFFSET 0.005487 0.135180 0.001092
			CHANNELS 3 Zrotation Yrotation Xrotation
			JOINT Spine2
			{
				OFFSET 0.001457 0.052922 0.025425
				CHANNELS 3 Zrotation Yrotation Xrotation
				JOINT Neck
				{
					OFFSET -0.002778 0.213870 -0.042857
					CHANNELS 3 Zrotation Yrotation Xrotation
					JOINT Head
					{
						OFFSET 0.005152 0.064970 0.051349
						CHANNELS 3 Zrotation Yrotation Xrotation
						End Site
						{
							OFFSET 0.000000 0.000000 0.000000
						}
					}
				}
				JOINT LeftShoulder
				{
					OFFSET 0.078845 0.121749 -0.034090
					CHANNELS 3 Zrotation Yrotation Xrotation
					JOINT LeftArm
					{
						OFFSET 0.090977 0.030469 -0.008868
						CHANNELS 3 Zrotation Yrotation Xrotation
						JOINT LeftForeArm
						{
							OFFSET 0.259612 -0.012772 -0.027456
							CHANNELS 3 Zrotation Yrotation Xrotation
							JOINT LeftHand
							{
								OFFSET 0.249234 0.008986 -0.001171
								CHANNELS 3 Zrotation Yrotation Xrotation
								End Site
								{
									OFFSET 0.000000 0.000000 0.000000
								}
							}
						}
					}
				}
				JOINT RightShoulder
				{
					OFFSET -0.081759 0.118833 -0.038615
					CHANNELS 3 Zrotation Yrotation Xrotation
					JOINT RightArm
					{
						OFFSET -0.096012 0.032551 -0.009143
						CHANNELS 3 Zrotation Yrotation Xrotation
						JOINT RightForeArm
						{
							OFFSET -0.253742 -0.013329 -0.021401
							CHANNELS 3 Zrotation Yrotation Xrotation
							JOINT RightHand
							{
								OFFSET -0.255298 0.007772 -0.005559
								CHANNELS 3 Zrotation Yrotation Xrotation
								End Site
								{
									OFFSET 0.000000 0.000000 0.000000
								}
							}
						}
					}
				}
			}
		}
	}
}
MOTION
Frames: 5
Frame Time: 0.050000
-0.340225 0.927733 2.602089 -18.231200 67.470148 -15.748148 -2.128872 -0.571833 8.275451 0.460867 -2.041342 14.834258 -5.701568 -6.459068 3.795665 0.000000 0.000000 0.000000 9.505296 -0.811967 -28.893753 1.480049 -3.309573 16.178971 -3.377931 -2.482518 17.563236 0.000000 0.000000 0.000000 10.640012 -5.560320 18.493429 -12.911289 2.154688 -26.011616 3.527321 -1.233707 32.635324 9.175888 4.466521 -34.737570 0.000000 0.000000 0.000000 -21.208186 -10.252121 -10.943911 -46.211700 -4.582832 -2.282302 -22.703718 -42.140757 4.811729 0.000000 0.000000 0.000000 20.967922 -15.048850 -0.459561 64.343876 11.047990 -0.617680 0.942834 35.918657 5.932544 0.000000 0.000000 0.000000 
-0.283392 0.921819 2.627737 -15.820699 68.302557 -13.890470 -1.658002 -0.958939 10.475079 -1.695542 -2.650082 18.588020 -8.240593 -5.914040 7.676693 0.000000 0.000000 0.000000 9.596832 -0.729705 -28.388208 3.377926 -4.344758 16.664985 -5.326668 -5.288809 18.608641 0.000000 0.000000 0.000000 12.092517 -5.720478 17.625890 -15.068966 1.744043 -27.045923 4.350012 -3.266578 32.470389 6.206924 5.512539 -34.208044 0.000000 0.000000 0.000000 -22.141379 -8.056736 -11.579022 -46.788860 -2.379831 -3.551525 -22.018741 -39.733960 4.836648 0.000000 0.000000 0.000000 21.208753 -14.224881 -0.202397 61.560846 11.233804 -1.665262 1.170471 32.068759 4.684133 0.000000 0.000000 0.000000 
-0.224022 0.918171 2.654845 -13.265960 69.608087 -12.532851 -0.285446 -1.048902 9.182665 -5.739162 -4.847758 28.234445 -10.437884 -3.753658 13.287919 0.000000 0.000000 0.000000 10.649559 -0.202050 -26.543374 0.028626 -4.831655 21.828111 -6.212062 -8.015996 13.999543 0.000000 0.000000 0.000000 13.383891 -5.301189 15.416465 -13.413444 2.173485 -25.513846 2.532594 -2.769118 32.146260 6.257861 5.707620 -34.236334 0.000000 0.000000 0.000000 -23.153824 -8.247753 -12.635470 -46.762430 -0.234267 -4.025513 -22.780802 -37.734413 4.825860 0.000000 0.000000 0.000000 21.390165 -15.213078 -0.740918 60.553214 10.828513 -1.657746 1.101907 29.200435 3.937126 0.000000 0.000000 0.000000 
-0.167628 0.921206 2.684267 -14.269596 69.814096 -14.526354 3.737582 -1.028723 2.644762 -15.258955 -8.042802 43.920602 -2.009854 6.859557 14.171517 0.000000 0.000000 0.000000 12.666296 0.788057 -23.132799 -2.522144 -5.043545 24.683176 -4.993290 -7.108726 10.747045 0.000000 0.000000 0.000000 14.262919 -5.043526 14.026236 -13.432354 2.213249 -25.261406 2.897481 -2.318781 31.871685 6.660554 5.653425 -33.160992 0.000000 0.000000 0.000000 -21.848087 -7.742982 -12.395666 -47.660248 0.864747 -4.898000 -22.738382 -35.494433 4.315936 0.000000 0.000000 0.000000 24.046845 -16.629420 -0.884328 56.932531 11.675335 -2.619436 4.167789 27.222914 4.067605 0.000000 0.000000 0.000000 
-0.116546 0.929146 2.714210 -12.920921 69.044839 -14.111814 5.422655 -1.005213 -5.035120 -22.977906 -9.001968 54.594797 6.125137 16.772261 16.466069 0.000000 0.000000 0.000000 13.132409 1.456230 -18.319133 -3.498391 -4.597020 24.194643 -4.954475 -7.320015 10.523968 0.000000 0.000000 0.000000 13.923834 -4.748913 13.770810 -12.756079 2.344727 -25.079040 3.206359 -1.042664 31.887898 7.583756 5.334848 -32.484454 0.000000 0.000000 0.000000 -21.843064 -7.157178 -12.913414 -47.314503 1.807990 -5.262105 -23.311412 -34.508639 4.392599 0.000000 0.000000 0.000000 25.607441 -17.021607 -0.393569 55.693080 11.774969 -3.346330 4.938302 25.258913 3.716006 0.000000 0.000000 0.000000 
